HIERARCHY
ROOT RootJoint
{
    OFFSET   0.000000   0.000000   0.000000
    CHANNELS 6 Xposition Yposition Zposition Xrotation Yrotation Zrotation
    JOINT pelvis_lowerback
    {
        OFFSET   0.000000   0.093605   0.000000
        CHANNELS 3 Xrotation Yrotation Zrotation
        JOINT lowerback_torso
        {
            OFFSET   0.000000   0.100000   0.000000
            CHANNELS 3 Xrotation Yrotation Zrotation
            JOINT torso_head
            {
                OFFSET   0.000000   0.282350   0.000000
                CHANNELS 3 Xrotation Yrotation Zrotation
                End Site
                {
                    OFFSET   0.000000   0.192650   0.000000
                }
            }
            JOINT rTorso_Clavicle
            {
                OFFSET  -0.001000   0.157500   0.000000
                CHANNELS 3 Xrotation Yrotation Zrotation
                JOINT rShoulder
                {
                    OFFSET  -0.117647   0.000000   0.000000
                    CHANNELS 3 Xrotation Yrotation Zrotation
                    JOINT rElbow
                    {
                        OFFSET  -0.245000   0.000000   0.000000
                        CHANNELS 3 Xrotation Yrotation Zrotation
                        JOINT rWrist
                        {
                            OFFSET  -0.240000   0.000000   0.000000
                            CHANNELS 3 Xrotation Yrotation Zrotation
                            End Site
                            {
                                OFFSET  -0.116353  -0.002500   0.000000
                            }
                        }
                    }
                }
            }
            JOINT lTorso_Clavicle
            {
                OFFSET   0.001000   0.157500   0.000000
                CHANNELS 3 Xrotation Yrotation Zrotation
                JOINT lShoulder
                {
                    OFFSET   0.117647   0.000000   0.000000
                    CHANNELS 3 Xrotation Yrotation Zrotation
                    JOINT lElbow
                    {
                        OFFSET   0.245000   0.000000   0.000000
                        CHANNELS 3 Xrotation Yrotation Zrotation
                        JOINT lWrist
                        {
                            OFFSET   0.240000   0.000000   0.000000
                            CHANNELS 3 Xrotation Yrotation Zrotation
                            End Site
                            {
                                OFFSET   0.116353  -0.002500   0.000000
                            }
                        }
                    }
                }
            }
        }
    }
    JOINT rHip
    {
        OFFSET  -0.100000  -0.051395   0.000000
        CHANNELS 3 Xrotation Yrotation Zrotation
        JOINT rKnee
        {
            OFFSET   0.000000  -0.410000   0.000000
            CHANNELS 3 Xrotation Yrotation Zrotation
            JOINT rAnkle
            {
                OFFSET   0.000000  -0.390000   0.000000
                CHANNELS 3 Xrotation Yrotation Zrotation
                JOINT rToeJoint
                {
                    OFFSET   0.000000  -0.050000   0.130000
                    CHANNELS 3 Xrotation Yrotation Zrotation
                    End Site
                    {
                        OFFSET  -0.010000   0.002000   0.060000
                    }
                }
            }
        }
    }
    JOINT lHip
    {
        OFFSET   0.100000  -0.051395   0.000000
        CHANNELS 3 Xrotation Yrotation Zrotation
        JOINT lKnee
        {
            OFFSET   0.000000  -0.410000   0.000000
            CHANNELS 3 Xrotation Yrotation Zrotation
            JOINT lAnkle
            {
                OFFSET   0.000000  -0.390000   0.000000
                CHANNELS 3 Xrotation Yrotation Zrotation
                JOINT lToeJoint
                {
                    OFFSET   0.000000  -0.050000   0.130000
                    CHANNELS 3 Xrotation Yrotation Zrotation
                    End Site
                    {
                        OFFSET   0.010000   0.002000   0.060000
                    }
                }
            }
        }
    }
}
MOTION
Frames: 10
Frame Time:   0.008333
 -2.332939   0.898457   3.478309 -146.024734 -63.135739 -155.594366  15.136849  -1.748309  -2.564996  -0.900524  -1.491324   0.421578   1.776338   0.045439   2.608994  -0.189656  -3.161700  -1.654272   5.153088   6.286752  38.287016  -0.004948  69.970225   0.004635   2.269577   3.999366  -1.863535  -1.805733  -2.000970   1.727379   0.204724 -13.053272 -37.746479   0.007607 -57.713617   0.007298   1.107032  -3.965259   3.181195 -28.597840   1.202060  -6.835299  61.754272  -0.019190  -0.018661  -3.248824  -6.325101   9.988774  -3.078415   0.001476   0.003514  -1.892482  -0.875607   1.082493  31.648719  -0.000188  -0.001265 -13.964651  -3.254822   5.286577  -1.106792  -0.000611  -0.000842
 -2.334700   0.899476   3.475714 -145.018632 -64.008378 -154.665460  15.159890  -1.711209  -2.513542  -0.736465  -1.602350   0.533770   1.821619  -0.079462   2.599736  -0.117858  -3.353938  -1.705216   5.459214   6.090735  38.640369  -0.013333  69.430117   0.012570   2.286961   4.220907  -1.773353  -1.721583  -1.758166   1.965440   0.452894 -12.922578 -37.899735   0.008098 -57.245258   0.008560   1.165354  -4.155830   3.064985 -28.398810   1.567205  -7.119143  61.175288  -0.020094  -0.018994  -3.120403  -6.032832  10.027845  -2.980536   0.001847   0.003863  -1.652221  -1.158907   1.335060  31.378523  -0.000378  -0.002780 -13.880151  -3.701886   4.897255  -1.185630  -0.000696  -0.000885
 -2.336432   0.900629   3.473111 -143.968347 -64.924286 -153.685564  15.156480  -1.675983  -2.455927  -0.574474  -1.709179   0.650923   1.855946  -0.199816   2.591159  -0.016825  -3.571460  -1.730825   5.780766   5.879854  38.983441  -0.020154  68.889996   0.019047   2.296041   4.254388  -1.636079  -1.600475  -1.484552   2.169202   0.726884 -12.767502 -38.057830   0.008274 -56.780688   0.009606   1.214771  -4.213592   2.884135 -28.141863   1.926831  -7.417583  60.618366  -0.020749  -0.019299  -2.999577  -5.759950  10.062403  -2.878221   0.002211   0.004192  -1.453586  -1.427377   1.571165  31.065902  -0.000664  -0.004381 -13.815685  -4.136667   4.773646  -1.190725  -0.000560  -0.000725
 -2.338055   0.901823   3.470497 -142.878032 -65.861326 -152.666907  15.146853  -1.633196  -2.391538  -0.416721  -1.800876   0.770390   1.884768  -0.312272   2.584788   0.095086  -3.799721  -1.745412   6.100045   5.668625  39.311238  -0.025169  68.375300   0.023955   2.301013   4.205672  -1.477026  -1.466668  -1.196040   2.353553   1.004909 -12.601725 -38.209694   0.008278 -56.335420   0.010415   1.258211  -4.192323   2.680704 -27.860990   2.267183  -7.711528  60.110314  -0.020842  -0.019283  -2.886268  -5.505568  10.093395  -2.782628   0.002466   0.004370  -1.296505  -1.678762   1.818873  30.743483  -0.000926  -0.005826 -13.722212  -4.530602   4.656112  -1.217026  -0.000460  -0.000682
 -2.339542   0.903007   3.467888 -141.746079 -66.805539 -151.604456  15.139207  -1.580524  -2.325327  -0.262817  -1.874724   0.888468   1.911070  -0.416958   2.579941   0.207739  -4.024987  -1.755111   6.407676   5.465402  39.621019  -0.028620  67.890255   0.027534   2.304370   4.123837  -1.310519  -1.330895  -0.904161   2.525181   1.277436 -12.432693 -38.351522   0.008156 -55.912710   0.010976   1.297655  -4.126179   2.477706 -27.570200   2.585904  -7.999115  59.650421  -0.020444  -0.018946  -2.779936  -5.268271  10.121399  -2.694135   0.002615   0.004418  -1.176867  -1.916681   2.072949  30.415336  -0.001145  -0.007077 -13.618118  -4.895878   4.542921  -1.238506  -0.000377  -0.000638
 -2.340883   0.904156   3.465290 -140.566992 -67.749216 -150.490077  15.136943  -1.518233  -2.260348  -0.112814  -1.930932   1.002702   1.936148  -0.514359   2.576084   0.315809  -4.239502  -1.762798   6.698987   5.274461  39.912044  -0.030778  67.435691   0.030002   2.307239   4.030946  -1.143374  -1.198232  -0.616164   2.686812   1.539847 -12.265107 -38.482679   0.007929 -55.513558   0.011302   1.334263  -4.033921   2.283570 -27.276208   2.882933  -8.279089  59.233032  -0.019691  -0.018365  -2.680200  -5.046893  10.146800  -2.612428   0.002677   0.004368  -1.091681  -2.142503   2.328308  30.084049  -0.001318  -0.008133 -13.511937  -5.235570   4.434952  -1.244131  -0.000304  -0.000536
 -2.342080   0.905255   3.462703 -139.332302 -68.687567 -149.313522  15.141327  -1.447485  -2.198495   0.033086  -1.970910   1.111461   1.960550  -0.604975   2.572870   0.416650  -4.439455  -1.769883   6.971951   5.097631  40.184521  -0.031892  67.011109   0.031548   2.310128   3.938026  -0.979013  -1.071061  -0.336465   2.839417   1.789965 -12.101915 -38.603788   0.007615 -55.137961   0.011418   1.368727  -3.926721   2.100459 -26.982636   3.158920  -8.550221  58.852913  -0.018701  -0.017616  -2.586705  -4.840362  10.169896  -2.537075   0.002670   0.004247  -1.038148  -2.357013   2.581133  29.751541  -0.001449  -0.009006 -13.408176  -5.551693   4.332640  -1.229026  -0.000239  -0.000355
 -2.343651   0.906653   3.460119 -137.944499 -69.619118 -147.924619  14.993346  -1.365831  -2.180115   0.292863  -2.088145   1.213009   2.033296  -0.730181   2.563141   0.526500  -4.550009  -1.846949   7.309718   4.992844  40.608384  -0.042333  66.124184   0.042167   2.340868   4.129766  -0.884182  -0.924228  -0.054149   3.031352   2.193642 -11.885568 -38.898451   0.006661 -54.366861   0.012873   1.422889  -4.149798   2.033831 -26.498419   3.458928  -8.893515  58.313894  -0.019274  -0.018333  -2.432052  -4.612865  10.070706  -2.489943   0.002530   0.003882  -0.802648  -2.623371   2.744437  29.112338  -0.001915  -0.011668 -13.228737  -5.742119   4.274648  -1.130812  -0.000191   0.000254
 -2.345208   0.908097   3.457546 -136.485714 -70.577732 -146.454204  14.819155  -1.285746  -2.152714   0.537894  -2.195715   1.311615   2.091186  -0.852037   2.555077   0.661474  -4.682446  -1.901480   7.658836   4.874774  41.017545  -0.049757  65.261385   0.049851   2.364977   4.131006  -0.728318  -0.737681   0.257776   3.183870   2.620101 -11.649536 -39.195501   0.005491 -53.610273   0.014013   1.469307  -4.180010   1.886009 -25.990377   3.742427  -9.240157  57.786769  -0.019629  -0.018945  -2.286555  -4.401652   9.976561  -2.435985   0.002476   0.003659  -0.594397  -2.883015   2.906227  28.422754  -0.002343  -0.014310 -13.022692  -5.921961   4.212918  -1.023602  -0.000148   0.000826
 -2.346656   0.909498   3.454996 -134.926906 -71.544541 -144.880339  14.650489  -1.199241  -2.118654   0.770800  -2.284786   1.408338   2.140661  -0.966199   2.549373   0.802762  -4.827417  -1.945197   8.001393   4.753424  41.405677  -0.054335  64.446753   0.054925   2.385712   4.057221  -0.551330  -0.540185   0.582547   3.313947   3.043161 -11.409774 -39.482226   0.004426 -52.890819   0.014854   1.510811  -4.114872   1.704041 -25.482075   4.004984  -9.576957  57.302349  -0.019500  -0.019161  -2.149925  -4.205066   9.887807  -2.384498   0.002406   0.003451  -0.428078  -3.130680   3.070533  27.732324  -0.002661  -0.016556 -12.809134  -6.091732   4.150379  -0.909781  -0.000112   0.001352
